<svg xmlns="http://www.w3.org/2000/svg" width="512" height="512" viewBox="0 0 512 512"><rect width="512" height="512" rx="120" fill="#ffffff"/><svg x="132.79" y="105.98" width="246.41" height="300.03" viewBox="0 0 194.08 236.31"><path d="M181.21,89.15L137.69,99.7l21.82-14.53c15.69-10.45,26.19-27.08,28.88-45.73L194.08,0l0,0c-18.79,13.86-40.77,22.76-63.91,25.86L72.27,33.6c-23.32,3.12-44.43,16.31-56.32,36.62C6.1,87.06,2.64,107.65,7.91,128.02l1.04,4.01l48.67,5.2l0,0C30.7,143.2,10.28,165.2,6.34,192.49L0,236.31l0,0c28.49-17.35,60.53-28.03,93.73-31.26l25.54-2.48c29.96-2.91,56.12-22.72,65.53-51.32c4.42-13.44,5.16-28.26,1.36-42.96L181.21,89.15z M115.85,143l-23.2,6.02c-8.99,2.31-18.13-3.06-20.47-12.05l-5.99-23.2c-2.34-8.99,3.06-18.16,12.03-20.47l23.22-6.02c8.97-2.31,18.13,3.08,20.47,12.05l5.99,23.22C130.24,131.52,124.84,140.69,115.85,143z" fill="#0a0a0a" fill-rule="evenodd" clip-rule="evenodd"/></svg></svg>